<?xml version="1.0" encoding="UTF-8"?>
<svg xmlns="http://www.w3.org/2000/svg" viewBox="0 0 768 432" role="img">
  <defs>
    <linearGradient id="bg" x1="0" y1="0" x2="1" y2="1">
      <stop offset="0" stop-color="#f7eee4"/>
      <stop offset="0.62" stop-color="#eadfda"/>
      <stop offset="1" stop-color="#d8d1da"/>
    </linearGradient>
    <filter id="shadow" x="-20%" y="-20%" width="140%" height="140%">
      <feDropShadow dx="0" dy="12" stdDeviation="8" flood-color="#6b5360" flood-opacity="0.18"/>
    </filter>
  </defs>
  <rect width="768" height="432" rx="42" fill="url(#bg)"/>
  <g opacity="0.18">
    <rect x="64" y="56" width="24" height="24" rx="5" fill="#fff"/>
    <rect x="680" y="68" width="18" height="18" rx="4" fill="#fff"/>
    <rect x="118" y="338" width="18" height="18" rx="4" fill="#fff"/>
    <rect x="612" y="326" width="26" height="26" rx="6" fill="#fff"/>
  </g>
  <g filter="url(#shadow)">
    
    <path d="M194 154h380v62q-36 0-36 32t36 32v62H194v-62q36 0 36-32t-36-32z" fill="#fff1c9" stroke="#5d5048" stroke-width="12" stroke-linejoin="round"/>
    <path d="M328 248h118M406 210l40 38-40 38" fill="none" stroke="#8fb8a2" stroke-width="18" stroke-linecap="round" stroke-linejoin="round"/>
    <path d="M286 172v152" stroke="#d6bd7c" stroke-width="10" stroke-dasharray="14 16"/>
  </g>
</svg>