<?xml version="1.0" encoding="UTF-8"?>
<svg xmlns="http://www.w3.org/2000/svg" viewBox="0 0 768 432" role="img">
  <defs>
    <linearGradient id="bg" x1="0" y1="0" x2="1" y2="1">
      <stop offset="0" stop-color="#f7eee4"/>
      <stop offset="0.62" stop-color="#eadfda"/>
      <stop offset="1" stop-color="#d8d1da"/>
    </linearGradient>
    <filter id="shadow" x="-20%" y="-20%" width="140%" height="140%">
      <feDropShadow dx="0" dy="12" stdDeviation="8" flood-color="#6b5360" flood-opacity="0.18"/>
    </filter>
  </defs>
  <rect width="768" height="432" rx="42" fill="url(#bg)"/>
  <g opacity="0.18">
    <rect x="64" y="56" width="24" height="24" rx="5" fill="#fff"/>
    <rect x="680" y="68" width="18" height="18" rx="4" fill="#fff"/>
    <rect x="118" y="338" width="18" height="18" rx="4" fill="#fff"/>
    <rect x="612" y="326" width="26" height="26" rx="6" fill="#fff"/>
  </g>
  <g filter="url(#shadow)">
    
    <rect x="274" y="72" width="220" height="310" rx="34" fill="#e9e8f2" stroke="#5d5048" stroke-width="12"/>
    <rect x="306" y="118" width="156" height="210" rx="20" fill="#fff8ea"/>
    <rect x="326" y="150" width="94" height="20" rx="10" fill="#8fb8a2"/>
    <rect x="326" y="204" width="116" height="20" rx="10" fill="#d58b87"/>
    <rect x="326" y="258" width="74" height="20" rx="10" fill="#d6bd7c"/>
    <path d="M472 146l58-38M472 250l62 36" stroke="#bf4d49" stroke-width="12" stroke-linecap="round"/>
  </g>
</svg>