<?xml version="1.0" encoding="UTF-8"?>
<svg xmlns="http://www.w3.org/2000/svg" viewBox="0 0 768 432" role="img">
  <defs>
    <linearGradient id="bg" x1="0" y1="0" x2="1" y2="1">
      <stop offset="0" stop-color="#f7eee4"/>
      <stop offset="0.62" stop-color="#eadfda"/>
      <stop offset="1" stop-color="#d8d1da"/>
    </linearGradient>
    <filter id="shadow" x="-20%" y="-20%" width="140%" height="140%">
      <feDropShadow dx="0" dy="12" stdDeviation="8" flood-color="#6b5360" flood-opacity="0.18"/>
    </filter>
  </defs>
  <rect width="768" height="432" rx="42" fill="url(#bg)"/>
  <g opacity="0.18">
    <rect x="64" y="56" width="24" height="24" rx="5" fill="#fff"/>
    <rect x="680" y="68" width="18" height="18" rx="4" fill="#fff"/>
    <rect x="118" y="338" width="18" height="18" rx="4" fill="#fff"/>
    <rect x="612" y="326" width="26" height="26" rx="6" fill="#fff"/>
  </g>
  <g filter="url(#shadow)">
    
    <path d="M300 116q84-68 168 0 20 104-84 220-104-116-84-220z" fill="#f7dd9c" stroke="#5d5048" stroke-width="12" stroke-linejoin="round"/>
    <path d="M336 144q48-34 96 0" fill="none" stroke="#c98b83" stroke-width="14" stroke-linecap="round"/>
    <rect x="366" y="286" width="36" height="92" rx="14" fill="#c9a17f" stroke="#5d5048" stroke-width="10"/>
    <circle cx="330" cy="206" r="14" fill="#8fb8a2"/><circle cx="436" cy="206" r="14" fill="#8fb8a2"/>
  </g>
</svg>