<?xml version="1.0" encoding="UTF-8"?>
<svg xmlns="http://www.w3.org/2000/svg" viewBox="0 0 768 432" role="img">
  <defs>
    <linearGradient id="bg" x1="0" y1="0" x2="1" y2="1">
      <stop offset="0" stop-color="#f7eee4"/>
      <stop offset="0.62" stop-color="#eadfda"/>
      <stop offset="1" stop-color="#d8d1da"/>
    </linearGradient>
    <filter id="shadow" x="-20%" y="-20%" width="140%" height="140%">
      <feDropShadow dx="0" dy="12" stdDeviation="8" flood-color="#6b5360" flood-opacity="0.18"/>
    </filter>
  </defs>
  <rect width="768" height="432" rx="42" fill="url(#bg)"/>
  <g opacity="0.18">
    <rect x="64" y="56" width="24" height="24" rx="5" fill="#fff"/>
    <rect x="680" y="68" width="18" height="18" rx="4" fill="#fff"/>
    <rect x="118" y="338" width="18" height="18" rx="4" fill="#fff"/>
    <rect x="612" y="326" width="26" height="26" rx="6" fill="#fff"/>
  </g>
  <g filter="url(#shadow)">
    
    <rect x="262" y="74" width="244" height="300" rx="34" fill="#efe9f5" stroke="#5d5048" stroke-width="12"/>
    <rect x="304" y="118" width="160" height="160" rx="22" fill="#f7f1e6"/>
    <rect x="322" y="152" width="124" height="18" rx="9" fill="#8fb8a2"/>
    <rect x="322" y="198" width="94" height="18" rx="9" fill="#d09082"/>
    <path d="M326 304h116" stroke="#bf4d49" stroke-width="18" stroke-linecap="round"/>
    <path d="M354 286l-28 18 28 18" fill="none" stroke="#bf4d49" stroke-width="12" stroke-linecap="round" stroke-linejoin="round"/>
  </g>
</svg>